<?xml version="1.0" encoding="utf-8"?>
<!-- Generator: Adobe Illustrator 24.0.1, SVG Export Plug-In . SVG Version: 6.00 Build 0)  -->
<svg version="1.1" id="Layer_1" xmlns="http://www.w3.org/2000/svg" xmlns:xlink="http://www.w3.org/1999/xlink" x="0px" y="0px"
	 viewBox="0 0 905 1280" style="enable-background:new 0 0 905 1280;" xml:space="preserve">
<g transform="translate(0.000000,1280.000000) scale(0.100000,-0.100000)">
	<path d="M2940,10856c-142-30-286-148-356-290l-39-80l-3-4023l-2-4023l21-62c44-132,154-253,286-316l78-37h1751h1751l85,42
		c160,79,275,229,298,388c7,47,10,1352,8,4035l-3,3965l-22,57c-67,176-228,316-397,347C6307,10875,3015,10873,2940,10856z
		 M6644,9824c15-6,16-318,16-3445V2940H4715c-1722,0-1945,2-1945,15c0,8-4,15-10,15c-7,0-10,1150-10,3430v3430h1939
		C5756,9830,6635,9827,6644,9824z"/>
	<path d="M2764,9520c0-168,2-236,3-152c2,83,2,221,0,305C2766,9756,2764,9688,2764,9520z"/>
</g>
<image style="overflow:visible;" width="360" height="360" xlink:href="logoapp.jpg"  transform="matrix(0.425 0 0 0.4139 300 319)">
</image>
<image style="overflow:visible;" width="400" height="400" xlink:href="../../../Downloads/rialto.png"  transform="matrix(0.335 0 0 0.3293 499 327.6455)">
</image>
<image style="overflow:visible;" width="800" height="432" xlink:href="../../../Downloads/happslogo.png"  transform="matrix(0.2897 0 0 0.3773 352.0554 491)">
</image>
</svg>
