<?xml version="1.0" encoding="UTF-8"?>
<svg width="915px" height="801px" viewBox="0 0 915 801" version="1.1" xmlns="http://www.w3.org/2000/svg" xmlns:xlink="http://www.w3.org/1999/xlink">
    <!-- Generator: Sketch 61.1 (89650) - https://sketch.com -->
    <title>undraw_personal_goals_edgd</title>
    <desc>Created with Sketch.</desc>
    <g id="Page-1" stroke="none" stroke-width="1" fill="none" fill-rule="evenodd">
        <g id="undraw_personal_goals_edgd" transform="translate(-28.000000, -23.000000)" fill-rule="nonzero">
            <path d="M1002,473 C666.07758,345.70593 332.02823,342.43732 0,473 L0,2.84217094e-14 L1002,2.84217094e-14 L1002,473 Z" id="Path"></path>
            <rect id="Rectangle" fill="#D0CDE1" x="36" y="30" width="197" height="9"></rect>
            <rect id="Rectangle" fill="#D0CDE1" x="36" y="53" width="197" height="9"></rect>
            <rect id="Rectangle" fill="#D0CDE1" x="36" y="76" width="197" height="9"></rect>
            <rect id="Rectangle" fill="#D0CDE1" x="69" y="114" width="20" height="20"></rect>
            <rect id="Rectangle" fill="#6C63FF" x="125" y="114" width="20" height="20"></rect>
            <rect id="Rectangle" fill="#FF6584" x="181" y="114" width="20" height="20"></rect>
            <rect id="Rectangle" fill="#D0CDE1" x="51.00005" y="189.00004" width="168" height="28.87712"></rect>
            <rect id="Rectangle" fill="#6C63FF" x="51.00005" y="233.31148" width="168" height="28.87712"></rect>
            <rect id="Rectangle" fill="#FF6584" x="51.00005" y="277.62291" width="168" height="28.87712"></rect>
            <rect id="Rectangle" fill="#000000" opacity="0.15" x="51.00006" y="189.00005" width="69.49999" height="28.87712"></rect>
            <rect id="Rectangle" fill="#000000" opacity="0.15" x="50.99995" y="233.31145" width="22.5" height="28.87712"></rect>
            <rect id="Rectangle" fill="#000000" opacity="0.15" x="51.00005" y="277.62291" width="112" height="28.87712"></rect>
            <path d="M492,23 L492,353 C583.126984,353 657,279.126984 657,188 C657,96.8730163 583.126984,23 492,23 Z" id="Path" fill="#D0CDE1"></path>
            <path d="M481,30.2535866 C423.649608,30.2414213 371.203976,62.6000078 345.48969,113.8625 L481,194.07636 L481,30.2535866 Z" id="Path" fill="#D0CDE1"></path>
            <path d="M334.48969,116.01282 C308.855314,167.168414 311.545533,227.951381 341.599056,276.642261 C371.65258,325.33314 424.780984,354.984093 482,355 L482,203.33 L334.48969,116.01282 Z" id="Path" fill="#6C63FF"></path>
            <rect id="Rectangle" fill="#D0CDE1" x="768" y="109" width="101" height="9"></rect>
            <rect id="Rectangle" fill="#6C63FF" x="735" y="103" width="20" height="20"></rect>
            <rect id="Rectangle" fill="#D0CDE1" x="768" y="139" width="101" height="9"></rect>
            <rect id="Rectangle" fill="#6C63FF" x="735" y="133" width="20" height="20"></rect>
            <rect id="Rectangle" fill="#D0CDE1" x="768" y="169" width="101" height="9"></rect>
            <rect id="Rectangle" fill="#6C63FF" x="735" y="163" width="20" height="20"></rect>
            <polygon id="Path" fill="#2F2E41" points="438.707 250.707 437.293 249.293 542.586 144 726 144 726 146 543.414 146"></polygon>
            <path d="M1002,732 L0,732 L0,505 C322,379.53018 656,379.53018 1002,505 L1002,732 Z" id="Path"></path>
            <path d="M411.80283,604.8811 L420.94,633.16268 C420.94,633.16268 412.67307,659.70386 416.589,689.29076 C420.50493,718.87766 418.32941,719.74785 418.32941,719.74785 C418.32941,719.74785 379.20317,717.49538 383.11908,729.24312 C387.03499,740.99086 425.29108,734.10619 425.29108,734.10619 C425.29108,734.10619 432.63832,732.12798 436.11908,711.24312 C439.59984,690.35826 448.3514,650.13163 448.3514,650.13163 L440.122,612.15674 L411.80283,604.8811 Z" id="Path" fill="#FFB8B8"></path>
            <path d="M414.84854,547.01262 C414.84854,547.01262 398.31469,553.10404 398.31469,569.63789 C398.31469,586.17174 404.40611,608.79701 408.32202,610.10231 C412.23793,611.40761 438.34402,629.24677 443.13013,616.62883 C447.91624,604.01089 414.84854,547.01262 414.84854,547.01262 Z" id="Path" fill="#D0CDE1"></path>
            <polygon id="Path" fill="#FFB8B8" points="553.211 742.808 588.019 741.503 614.56 737.587 606.728 763.693 542.333 765.433"></polygon>
            <path d="M603.24742,746.28903 C603.24742,746.28903 602.81232,736.7168 598.89642,737.1519 C594.98052,737.587 597.59111,733.67109 601.07192,732.8009 C604.55273,731.93071 614.56007,727.57968 614.56007,727.57968 L654.15429,730.19029 C654.15429,730.19029 679.82529,752.81556 669.38284,764.9984 C658.94039,777.18124 631.96412,766.3037 631.96412,766.3037 L602.81233,766.7388 C602.81233,766.7388 593.24009,751.07515 603.24742,746.28903 Z" id="Path" fill="#2F2E41"></path>
            <polygon id="Path" fill="#FFB8B8" points="618.911 712.786 631.529 771.96 657.635 766.739 642.842 692.772 627.178 684.505"></polygon>
            <path d="M468.80111,705.38951 C468.80111,705.38951 395.70411,738.45721 426.59628,771.96001 C426.59628,771.96001 426.59628,787.62366 459.22888,784.57795 C491.86148,781.53224 554.95117,775.87595 557.99688,777.61633 C561.04259,779.35671 570.61482,743.24333 562.34788,741.50292 C554.08094,739.76251 544.07363,737.587 544.07363,737.587 C544.07363,737.587 552.77563,736.2817 552.77563,728.885 C552.77563,728.885 577.57641,727.14459 584.97313,711.48094 C592.36985,695.81729 599.33148,684.06956 599.33148,684.06956 L616.30048,727.57969 C616.30048,727.57969 635.88004,691.46628 650.67348,707.56503 C650.67348,707.56503 634.13963,603.57581 621.52169,594.00358 C608.90375,584.43135 600.20169,581.38564 588.45399,590.08767 C576.70629,598.7897 565.82872,620.97986 565.82872,620.97986 L468.80111,705.38951 Z" id="Path" fill="#2F2E41"></path>
            <path d="M643.27674,754.12086 C640.234802,756.415238 637.329206,758.885001 634.57474,761.51758 C631.09393,764.99839 626.30781,763.25798 625.87274,761.51758 C625.43767,759.77718 617.60582,762.82288 616.73561,775.44082 C615.8654,788.05876 610.64419,799.3714 624.56744,803.28731 C638.49069,807.20322 638.05558,818.51585 638.05558,818.51585 C649.072258,823.800965 661.715742,824.581428 673.29879,820.69136 C692.87835,814.16484 685.91673,807.20322 685.91673,807.20322 L659.81065,764.12822 C659.81065,764.12822 652.849,751.07515 643.27674,754.12086 Z" id="Path" fill="#2F2E41"></path>
            <path d="M571.04992,538.31059 C571.04992,538.31059 612.81965,552.66893 617.17066,555.71459 C621.52167,558.76025 641.10124,573.11865 631.52901,580.51537 C621.95678,587.91209 614.125,592.69829 595.4156,587.04194 C576.7062,581.38559 555.82137,563.98157 555.82137,563.98157 L571.04992,538.31059 Z" id="Path" fill="#FFB8B8"></path>
            <path d="M529.28019,519.16613 C529.28019,519.16613 545.81404,516.12042 557.56178,522.64694 C569.30952,529.17346 579.31685,542.2265 579.31685,542.2265 C579.31685,542.2265 568.43931,565.28687 560.60749,568.76768 C552.77567,572.24849 538.41732,554.84444 538.41732,554.84444 L529.28019,519.16613 Z" id="Path" fill="#D0CDE1"></path>
            <path d="M453.13746,506.54819 C453.13746,506.54819 453.57256,523.51719 451.83215,525.25755 C450.09174,526.99791 472.71702,578.33991 497.51779,555.71464 C522.31856,533.08937 503.17411,523.95225 503.17411,523.95225 C503.17411,523.95225 494.03698,506.98325 494.47211,505.24289 C494.90724,503.50253 454.00769,505.24289 454.00769,505.24289 L453.13746,506.54819 Z" id="Path" fill="#FFB8B8"></path>
            <path d="M453.13746,506.54819 C453.13746,506.54819 453.57256,523.51719 451.83215,525.25755 C450.09174,526.99791 472.71702,578.33991 497.51779,555.71464 C522.31856,533.08937 503.17411,523.95225 503.17411,523.95225 C503.17411,523.95225 494.03698,506.98325 494.47211,505.24289 C494.90724,503.50253 454.00769,505.24289 454.00769,505.24289 L453.13746,506.54819 Z" id="Path" fill="#000000" opacity="0.1"></path>
            <path d="M460.09908,539.18079 C460.09908,539.18079 476.63293,550.49343 483.59455,547.88279 C490.55617,545.27215 499.2582,533.95955 500.1284,533.08934 C500.9986,532.21913 545.37894,621.41492 545.37894,621.41492 C545.37894,621.41492 538.85242,654.04752 521.44837,663.61975 C504.04432,673.19198 504.26187,680.80625 502.08637,687.33275 C499.91087,693.85925 471.84683,666.66544 471.84683,666.66544 L454.00767,590.9578 L454.00767,544.83711 L460.09908,539.18079 Z" id="Path" fill="#D0CDE1"></path>
            <path d="M452.91991,518.94858 C452.91991,518.94858 447.48114,517.86083 441.82482,522.64694 C436.1685,527.43305 409.62732,545.27221 410.93263,547.01262 C412.23794,548.75303 423.98563,573.5538 426.59628,583.56113 C429.20693,593.56846 433.1228,594.87376 433.1228,594.87376 C433.1228,594.87376 442.25992,601.40028 440.95462,606.1864 C439.64932,610.97252 433.993,676.23772 441.82482,690.59606 C449.65664,704.9544 448.35134,717.57234 446.17582,721.05315 C444.0003,724.53396 467.06068,711.04582 467.06068,711.04582 C467.06068,711.04582 501.43368,683.19934 504.04429,674.93241 C505.73256,669.249286 506.897683,663.423704 507.52511,657.52841 C507.52511,657.52841 485.335,569.63789 478.37334,564.85177 C471.41168,560.06565 452.91991,518.94858 452.91991,518.94858 Z" id="Path" fill="#575A89"></path>
            <path d="M500.71989,519.29268 C500.71989,519.29268 511.44104,512.63961 513.61654,514.38002 C515.79204,516.12043 536.24181,516.12042 536.67692,517.86083 C537.11203,519.60124 537.98222,561.37096 552.77566,572.24849 C567.5691,583.12602 557.99688,604.8811 557.99688,604.8811 L568.87441,622.2851 C568.87441,622.2851 509.70156,679.27873 513.61654,659.70381 C513.83409,658.61606 513.61654,658.39851 513.61654,658.39851 C513.61654,658.39851 490.55617,559.63051 493.60188,554.40929 C496.64759,549.18807 502.18158,525.51066 500.71989,519.29268 Z" id="Path" fill="#575A89"></path>
            <path d="M591.93479,559.19545 L532.761,579.64522 C532.761,579.64522 474.02232,593.56846 483.15945,609.66722 C492.29658,625.76598 531.0206,598.35458 531.0206,598.35458 L609.82019,589.52549 C609.82019,589.52549 641.10124,563.11137 591.93479,559.19545 Z" id="Path" fill="#FFB8B8"></path>
            <circle id="Oval" fill="#FFB8B8" cx="476.63293" cy="490.44944" r="32.1975"></circle>
            <path d="M450.992,458.45069 L445.03613,456.28492 C445.03613,456.28492 457.48925,443.83179 474.81548,444.91472 L469.94238,440.04172 C469.94238,440.04172 481.85411,435.71025 492.68292,447.08044 C498.37541,453.05751 504.9617,460.08323 509.06758,467.99764 L515.44589,467.99764 L512.78382,473.32178 L522.10108,478.64593 L512.53782,477.68957 C513.443762,482.286148 513.13194,487.039726 511.6333,491.47857 L509.4676,497.43436 C509.4676,497.43436 500.80449,480.1083 500.80449,477.94252 L500.80449,483.35693 C500.80449,483.35693 494.84862,478.48399 494.84862,475.23536 L491.6,479.02538 L489.97569,473.06951 L469.94239,479.02538 L473.19101,474.15244 L460.73789,475.77675 L465.61099,469.82089 C465.61099,469.82089 451.53356,476.8596 450.99199,482.81547 C450.45061,488.77126 443.41199,496.35147 443.41199,496.35147 L440.16337,490.93707 C440.16337,490.93707 435.29021,466.57229 450.992,458.45069 Z" id="Path" fill="#4D3324"></path>
            <path d="M871.06726,733.95291 L869.06726,733.91385 C869.840788,711.676459 872.213451,689.523552 876.16687,667.62674 C884.81531,620.74588 899.19617,589.95682 918.91003,576.11502 L920.05847,577.75174 C874.00671,610.08572 871.0907,732.71756 871.06726,733.95291 Z" id="Path" fill="#D0CDE1"></path>
            <path d="M896.06726,733.4744 L894.06726,733.43533 C894.11026,731.22049 895.36026,679.02127 915.91003,664.59354 L917.05847,666.23026 C897.33777,680.07596 896.077,732.94217 896.06726,733.4744 Z" id="Path" fill="#D0CDE1"></path>
            <circle id="Oval" fill="#6C63FF" cx="931.4364" cy="567.93338" r="10"></circle>
            <circle id="Oval" fill="#6C63FF" cx="926.48425" cy="653.93338" r="10"></circle>
            <path d="M891.406,583.92799 C893.28535,595.93199 888.3871,606.66862 888.3871,606.66862 C888.3871,606.66862 880.4418,597.94281 878.56245,585.93878 C876.6831,573.93475 881.58135,563.19815 881.58135,563.19815 C881.58135,563.19815 889.52667,571.92395 891.406,583.92799 Z" id="Path" fill="#6C63FF"></path>
            <path d="M924.06191,612.99051 C912.56891,616.93271 901.15841,614.02471 901.15841,614.02471 C901.15841,614.02471 908.38164,604.72514 919.87459,600.78294 C931.36754,596.84074 942.77808,599.74875 942.77808,599.74875 C942.77808,599.74875 935.55486,609.04829 924.06191,612.99051 Z" id="Path" fill="#D0CDE1"></path>
            <path d="M924.46245,689.24288 C919.260819,690.876689 913.721342,691.115883 908.39824,689.93653 C915.302468,681.146267 926.724144,677.228513 937.57024,679.93023 C934.091762,684.128615 929.571757,687.339928 924.46245,689.24288 L924.46245,689.24288 Z" id="Path" fill="#D0CDE1"></path>
            <path d="M805.98425,554.33529 C798.804548,554.33529 792.98425,548.514992 792.98425,541.33529 C792.98425,534.155588 798.804548,528.33529 805.98425,528.33529 C813.163952,528.33529 818.98425,534.155588 818.98425,541.33529 C818.976303,548.511697 813.160657,554.327343 805.98425,554.33529 L805.98425,554.33529 Z M805.98425,530.33529 C799.909118,530.33529 794.98425,535.260158 794.98425,541.33529 C794.98425,547.410422 799.909118,552.33529 805.98425,552.33529 C812.059382,552.33529 816.98425,547.410422 816.98425,541.33529 C816.977389,535.263002 812.056538,530.342151 805.98425,530.33529 Z" id="Shape" fill="#D0CDE1"></path>
            <circle id="Oval" fill="#D0CDE1" cx="745" cy="614" r="8"></circle>
            <circle id="Oval" fill="#D0CDE1" cx="36" cy="523" r="8"></circle>
            <path d="M86,657 L60,657 L60,631 L86,631 L86,657 Z M62,655 L84,655 L84,633 L62,633 L62,655 Z" id="Shape" fill="#D0CDE1"></path>
            <path d="M251,565 C223.385763,565 201,587.385763 201,615 C201,642.614237 223.385763,665 251,665 C278.614237,665 301,642.614237 301,615 C301,587.385763 278.614237,565 251,565 Z M242.37482,637.37488 L220.86761,615.86755 L226.90021,609.83502 L242.39508,625.32996 L275.09991,592.62512 L281.13239,598.65772 L242.37482,637.37488 Z" id="Shape" fill="#6C63FF"></path>
        </g>
    </g>
</svg>