<svg id="Layer_1" data-name="Layer 1" xmlns="http://www.w3.org/2000/svg" xmlns:xlink="http://www.w3.org/1999/xlink" viewBox="0 0 427.86 884.49"><title>phonewithicons</title><path d="M294,194.4c-14.2,3-28.6,14.8-35.6,29l-3.9,8-.3,402.3L254,1036l2.1,6.2c4.4,13.2,15.4,25.3,28.6,31.6l7.8,3.7H642.7l8.5-4.2c16-7.9,27.5-22.9,29.8-38.8.7-4.7,1-135.2.8-403.5l-.3-396.5-2.2-5.7c-6.7-17.6-22.8-31.6-39.7-34.7C630.7,192.5,301.5,192.7,294,194.4ZM664.4,297.6c1.5.6,1.6,31.8,1.6,344.5V986H471.5c-172.2,0-194.5-.2-194.5-1.5,0-.8-.4-1.5-1-1.5s-1-115-1-343V297H468.9C575.6,297,663.5,297.3,664.4,297.6Z" transform="translate(-254 -193.01)"/><path d="M276.4,328c0,16.8.2,23.6.3,15.2s.2-22.1,0-30.5S276.4,311.2,276.4,328Z" transform="translate(-254 -193.01)"/><image width="360" height="360" transform="translate(46 125.99) scale(0.42 0.41)" xlink:href="../Documents/website-thomas/public/logoapp.jpg"/><image width="400" height="400" transform="translate(245 134.64) scale(0.34 0.33)" xlink:href="rialto.png"/><image width="800" height="432" transform="translate(98.06 297.99) scale(0.29 0.38)" xlink:href="happslogo.png"/></svg>